HIERARCHY
ROOT Hips
{
  OFFSET -4.35178 90.3298 111.633
  CHANNELS 6 Xposition Yposition Zposition Zrotation Xrotation Yrotation
  JOINT LeftUpLeg
  {
    OFFSET 0.103456 1.85784 10.5485
    CHANNELS 6 Xposition Yposition Zposition Zrotation Xrotation Yrotation
    JOINT LeftLeg
    {
      OFFSET 43.5 -4.2e-05 0
      CHANNELS 6 Xposition Yposition Zposition Zrotation Xrotation Yrotation
      JOINT LeftFoot
      {
        OFFSET 42.3722 1.9e-05 0
        CHANNELS 6 Xposition Yposition Zposition Zrotation Xrotation Yrotation
        JOINT LeftToe
        {
          OFFSET 17.3 0 0
          CHANNELS 6 Xposition Yposition Zposition Zrotation Xrotation Yrotation
          End Site
          {
            OFFSET 0 0 0
          }
        }
      }
    }
  }
  JOINT RightUpLeg
  {
    OFFSET 0.103456 1.85782 -10.5485
    CHANNELS 6 Xposition Yposition Zposition Zrotation Xrotation Yrotation
    JOINT RightLeg
    {
      OFFSET 43.5 -2.7e-05 0
      CHANNELS 6 Xposition Yposition Zposition Zrotation Xrotation Yrotation
      JOINT RightFoot
      {
        OFFSET 42.3723 0 0
        CHANNELS 6 Xposition Yposition Zposition Zrotation Xrotation Yrotation
        JOINT RightToe
        {
          OFFSET 17.3 0 1.7e-05
          CHANNELS 6 Xposition Yposition Zposition Zrotation Xrotation Yrotation
          End Site
          {
            OFFSET 0 0 0
          }
        }
      }
    }
  }
  JOINT Spine
  {
    OFFSET 6.90197 -2.60373 0
    CHANNELS 6 Xposition Yposition Zposition Zrotation Xrotation Yrotation
    JOINT Spine1
    {
      OFFSET 12.5881 0 0
      CHANNELS 6 Xposition Yposition Zposition Zrotation Xrotation Yrotation
      JOINT Spine2
      {
        OFFSET 12.3432 -1.8e-05 0
        CHANNELS 6 Xposition Yposition Zposition Zrotation Xrotation Yrotation
        JOINT Neck
        {
          OFFSET 25.8329 2.3e-05 0
          CHANNELS 6 Xposition Yposition Zposition Zrotation Xrotation Yrotation
          JOINT Head
          {
            OFFSET 11.7666 0 0
            CHANNELS 6 Xposition Yposition Zposition Zrotation Xrotation Yrotation
            End Site
            {
              OFFSET 0 0 0
            }
          }
        }
        JOINT LeftShoulder
        {
          OFFSET 19.7459 -1.48035 6.0001
          CHANNELS 6 Xposition Yposition Zposition Zrotation Xrotation Yrotation
          JOINT LeftArm
          {
            OFFSET 11.2841 1.8e-05 -2e-05
            CHANNELS 6 Xposition Yposition Zposition Zrotation Xrotation Yrotation
            JOINT LeftForeArm
            {
              OFFSET 33 -1.3e-05 1.9e-05
              CHANNELS 6 Xposition Yposition Zposition Zrotation Xrotation Yrotation
              JOINT LeftHand
              {
                OFFSET 25.2 3.2e-05 1.1e-05
                CHANNELS 6 Xposition Yposition Zposition Zrotation Xrotation Yrotation
                End Site
                {
                  OFFSET 0 0 0
                }
              }
            }
          }
        }
        JOINT RightShoulder
        {
          OFFSET 19.7461 -1.48036 -6.00008
          CHANNELS 6 Xposition Yposition Zposition Zrotation Xrotation Yrotation
          JOINT RightArm
          {
            OFFSET 11.2841 0 0
            CHANNELS 6 Xposition Yposition Zposition Zrotation Xrotation Yrotation
            JOINT RightForeArm
            {
              OFFSET 33.0001 1.6e-05 0
              CHANNELS 6 Xposition Yposition Zposition Zrotation Xrotation Yrotation
              JOINT RightHand
              {
                OFFSET 25.1998 0.000123 0.000432
                CHANNELS 6 Xposition Yposition Zposition Zrotation Xrotation Yrotation
                End Site
                {
                  OFFSET 0 0 0
                }
              }
            }
          }
        }
      }
    }
  }
}
MOTION
Frames:	4
Frame Time:	0.0333333
-95.9357 118.16 94.4879 -61.4835 72.3666 155.489 0.103456 1.85784 10.5485 -1.68513 1.07519 -174.137 43.5 -4.2e-05 1e-05 -58.74 6.10596 -8.92855 42.3722 1.9e-05 0 84.8313 9.3423 -14.7449 17.3 0 3e-06 21.4546 -1e-06 0.003093 0.103456 1.85782 -10.5485 -14.407 1.82304 174.771 43.5 -2.7e-05 4e-06 -24.8305 5.52285 1.71074 42.3723 0 1e-05 54.1437 22.0524 -18.7152 17.3 -6e-06 1.7e-05 21.4546 -1.9e-05 -0.003116 6.90197 -2.60373 -3e-06 9.98547 2.66504 0.926396 12.5881 1e-05 8e-06 9.87139 5.59923 1.37733 12.3432 -1.8e-05 -5e-06 9.47907 5.82012 1.04775 25.8329 2.3e-05 7e-06 10.0539 11.826 -15.2515 11.7666 -8e-06 -6e-06 12.8315 21.2563 1.52848 19.7459 -1.48035 6.0001 -175.018 9.92076 -80.5259 11.2841 1.8e-05 -2e-05 -10.6108 -15.3413 63.4125 33 -1.3e-05 1.9e-05 -85.0495 0.612952 -5.16304 25.2 3.2e-05 1.1e-05 -21.3512 39.2433 -4.88785 19.7461 -1.48036 -6.00008 -166.576 -0.105897 54.6185 11.2841 -1.42109e-14 -1e-06 2.66354 -23.4181 -26.5185 33.0001 1.6e-05 -1e-06 -52.9159 -4.66256 17.0129 25.1998 0.000123 0.000432 -9.43318 -18.5622 10.1809 
-96.4636 115.349 97.4622 -66.1213 68.2008 160.022 0.103456 1.85784 10.5485 -3.7984 -0.243149 -170.448 43.5 -4.2e-05 1e-05 -65.3728 9.14578 -8.758 42.3722 1.9e-05 0 86.784 11.4202 -19.6526 17.3 0 3e-06 21.4546 -1e-06 0.003093 0.103456 1.85782 -10.5485 -9.6419 1.307 173.469 43.5 -2.7e-05 4e-06 -16.3801 6.7737 3.08618 42.3723 0 1e-05 51.1955 23.5765 -20.1291 17.3 -6e-06 1.7e-05 21.4546 -1.9e-05 -0.003116 6.90197 -2.60373 -3e-06 9.88032 2.77107 0.768681 12.5881 1e-05 8e-06 9.66806 5.77765 1.04827 12.3432 -1.8e-05 -5e-06 9.27573 5.97478 0.708239 25.8329 2.3e-05 7e-06 10.354 13.208 -16.2226 11.7666 -8e-06 -6e-06 11.7042 23.3471 2.22245 19.7459 -1.48035 6.0001 -174.095 9.98508 -80.8103 11.2841 1.8e-05 -2e-05 -9.0896 -15.6967 62.711 33 -1.3e-05 1.9e-05 -87.5128 -0.816148 -5.2357 25.2 3.2e-05 1.1e-05 -19.7164 37.5343 -4.11756 19.7461 -1.48036 -6.00008 -166.257 0.0234455 54.6786 11.2841 0 -1e-06 3.06204 -23.0358 -27.5802 33.0001 1.6e-05 -1e-06 -58.3583 -4.49325 16.6316 25.1998 0.000123 0.000432 -10.0521 -19.0093 10.4204 
-96.9225 112.017 100.51 -67.8192 64.0868 162.486 0.103456 1.85784 10.5485 -4.94416 -1.35357 -167.822 43.5 -4.2e-05 1e-05 -72.3041 10.8225 -7.58161 42.3722 1.9e-05 0 88.7547 14.3399 -24.1283 17.3 0 3e-06 21.4546 -1e-06 0.003093 0.103456 1.85782 -10.5485 -4.9085 1.3151 171.82 43.5 -2.7e-05 4e-06 -9.93028 7.67431 3.97007 42.3723 1.42109e-14 1e-05 47.8288 24.129 -21.2842 17.3 -6e-06 1.7e-05 21.4546 -1.9e-05 -0.003116 6.90197 -2.60373 -3e-06 10.2905 2.73071 0.0670022 12.5881 1e-05 8e-06 10.5292 5.57502 -0.363375 12.3432 -1.8e-05 -5e-06 10.1439 5.69835 -0.688695 25.8329 2.3e-05 7e-06 10.2592 13.6459 -16.8674 11.7666 -8e-06 -6e-06 10.9163 24.3551 2.31814 19.7459 -1.48035 6.0001 -172.798 13.0935 -82.1139 11.2841 1.8e-05 -2e-05 -3.84411 -17.957 60.3754 33 -1.3e-05 1.9e-05 -90.4115 -3.36651 -5.35108 25.2 3.2e-05 1.1e-05 -18.6169 36.1688 -3.97959 19.7461 -1.48036 -6.00008 -165.556 -0.624527 59.6733 11.2841 2.84217e-14 -1e-06 -2.43735 -17.7308 -37.4989 33.0001 1.6e-05 -1e-06 -57.7639 -5.10691 15.7033 25.1998 0.000123 0.000432 -11.4261 -19.993 11.0482 
-97.3886 107.946 103.479 -69.5549 60.6266 164.411 0.103456 1.85784 10.5485 -6.09624 -2.84157 -165.176 43.5 -4.2e-05 1e-05 -79.1688 11.295 -5.75093 42.3722 1.9e-05 0 93.7585 15.3477 -29.2635 17.3 0 3e-06 21.4546 -1e-06 0.003093 0.103456 1.85782 -10.5485 -1.46683 1.80003 171.091 43.5 -2.7e-05 4e-06 -5.7318 7.857 4.47783 42.3723 1.42109e-14 1e-05 43.1865 24.5937 -21.4133 17.3 -6e-06 1.7e-05 21.4546 -1.9e-05 -0.003116 6.90197 -2.60373 -3e-06 10.3513 2.68762 -0.163578 12.5881 1e-05 8e-06 10.6633 5.44564 -0.817532 12.3432 -1.8e-05 -5e-06 10.2804 5.54318 -1.1342 25.8329 2.3e-05 7e-06 10.127 14.2676 -17.4328 11.7666 -8e-06 -6e-06 9.33601 25.145 2.73342 19.7459 -1.48035 6.0001 -172.056 13.1784 -82.7031 11.2841 1.8e-05 -2e-05 -1.547 -19.1532 59.9723 33 -1.3e-05 1.9e-05 -92.9154 -4.17809 -5.34022 25.2 3.2e-05 1.1e-05 -18.211 35.993 -4.41214 19.7461 -1.48036 -6.00008 -165.338 -0.752149 60.1598 11.2841 1.42109e-14 -1e-06 -2.29212 -17.5213 -37.9368 33.0001 1.6e-05 -1e-06 -63.3057 -5.30447 15.8296 25.1998 0.000123 0.000432 -12.3266 -21.6569 12.2789 
